<svg xmlns="http://www.w3.org/2000/svg" width="274.529" height="180.257" viewBox="0 0 274.529 180.257"><g id="Grupo_41" data-name="Grupo 41" transform="translate(-32.773 -38.561)"><path id="Caminho_5044" data-name="Caminho 5044" d="M41.049,117.575H45.04c5.391,0,7.846,4.458,7.846,8.6,0,4.346-2.427,8.732-7.846,8.732H41.049Zm4.079-7.656H32.773v32.644H45.128a15.668,15.668,0,0,0,11.486-4.522,16.616,16.616,0,0,0,4.547-11.91C61.161,118.074,55.654,109.919,45.128,109.919Z" fill="#003163"></path><path id="Caminho_5045" data-name="Caminho 5045" d="M83.9,121.184a4.023,4.023,0,0,1-1.09,2.929,3.6,3.6,0,0,1-2.635,1.048H74.371V117.31h5.808a3.6,3.6,0,0,1,3.725,3.874m8.1.118c0-5.7-4.047-11.471-11.772-11.471-2.956-.03-5.891-.02-8.835-.01l-5.257.01v32.688h8.32V132.284h4.235l6.381,10.235h8.39v-2.025l-6.626-9.771A10.732,10.732,0,0,0,92,121.3Z" fill="#003163"></path><path id="Caminho_5046" data-name="Caminho 5046" d="M115.673,131.27c0,3.076-2.628,4.168-4.878,4.168-2.271,0-4.922-1.092-4.922-4.168v-21.4h-8.32V131.4c0,7.942,6.865,11.559,13.242,11.559,7.718,0,13.109-4.753,13.109-11.559V109.875h-8.231Z" fill="#003264"></path><path id="Caminho_5047" data-name="Caminho 5047" d="M145.976,124.078l-12.059-14.291h-3.663v32.776h8.32V127.321l6.557,8.2h1.646l6.557-8.2v15.242h8.32V109.787h-3.618Z" fill="#003163"></path><path id="Caminho_5048" data-name="Caminho 5048" d="M183.995,124.078l-12.06-14.291h-3.663v32.776h8.32V127.321l6.558,8.2H184.8l6.558-8.2v15.242h8.32V109.787h-3.619Z" fill="#003163"></path><path id="Caminho_5049" data-name="Caminho 5049" d="M221.261,135.35c-4.029,0-8.334-2.4-8.334-9.131,0-6.246,4.209-9.043,8.378-9.043,3.845,0,8.333,2.368,8.333,9.043,0,6.74-4.513,9.131-8.377,9.131m.044-25.962c-8.063,0-16.743,5.267-16.743,16.831,0,11.595,8.61,16.876,16.609,16.876,9.859,0,16.743-6.941,16.743-16.876C237.914,115.17,229.558,109.388,221.3,109.388Z" fill="#003163"></path><path id="Caminho_5050" data-name="Caminho 5050" d="M262.295,126.255l-16.223-16.513H242.8v32.82h8.276V126.047l16.357,16.6h3.18V109.875h-8.32Z" fill="#003163"></path><path id="Caminho_5051" data-name="Caminho 5051" d="M285.551,117.575h3.991c5.392,0,7.846,4.458,7.846,8.6,0,4.346-2.426,8.732-7.846,8.732h-3.991Zm4.08-7.656H277.275v32.644h12.356a15.668,15.668,0,0,0,11.485-4.522,16.617,16.617,0,0,0,4.548-11.91C305.664,118.074,300.156,109.919,289.631,109.919Z" fill="#003163"></path><path id="Caminho_5052" data-name="Caminho 5052" d="M155.47,65.935A70.574,70.574,0,0,1,172.9,55.015a89.037,89.037,0,0,1,10.057-3.755,78.731,78.731,0,0,0-22.827,10.661A57.528,57.528,0,0,0,135.2,98.809c-.347,1.736-.606,3.487-.791,5.245h1.844a56.469,56.469,0,0,1,2.079-11.631A54.81,54.81,0,0,1,155.47,65.935" fill="#eb3b16"></path><path id="Caminho_5053" data-name="Caminho 5053" d="M212.668,47.623c.055.137.111.3.172.447l-.229.137s.114.015.31.044c.01.019.018.045.028.062a2.78,2.78,0,0,0,.629.759c.874.08,1.922.188,3.13.333.328.025.654.042.981.07.891.076,1.756.207,2.635.363.448.079.892.179,1.339.263.877.14,1.8.3,2.754.47,19.8,4.873,58.236,18.568,65.432,52.388.078.368.153.732.224,1.1H307.3a69.515,69.515,0,0,0-12.034-26.938,68.691,68.691,0,0,0-5.255-6.588C263.236,40.865,212.322,41.021,210.7,41.033c-.166,0-.333-.014-.5-.019.6,1.771,1.253,3.526,1.937,5.268q.264.672.535,1.341" fill="#eb3b16"></path><path id="Caminho_5054" data-name="Caminho 5054" d="M183.044,51.233l-.09.027.084-.024.006,0" fill="#eb3b16"></path><path id="Caminho_5055" data-name="Caminho 5055" d="M134.178,85.1a67.318,67.318,0,0,0-6.746,18.951h2.839a65.073,65.073,0,0,1,22.4-39.661A79.364,79.364,0,0,1,171.215,52.72,104.784,104.784,0,0,1,183.993,47.9c.283-.109.578-.194.868-.29a96.285,96.285,0,0,0-22.475,9.214A71.014,71.014,0,0,0,134.178,85.1" fill="#eb3b16"></path><path id="Caminho_5056" data-name="Caminho 5056" d="M183.044,51.233q.958-.293,1.922-.567a5.7,5.7,0,0,0-1.922.567" fill="#eb3b16"></path><path id="Caminho_5057" data-name="Caminho 5057" d="M293.56,149.889H264.327c-10.391,3.244-21.394,2.88-28.166,0H206.3a65.356,65.356,0,0,0,10.431,8.1,63.5,63.5,0,0,0,38.785,9.758c12.721-.958,25.391-5.727,34.815-14.475a47.227,47.227,0,0,0,3.3-3.383h-.074" fill="#eb3b16"></path><path id="Caminho_5058" data-name="Caminho 5058" d="M173.049,81.306a22.946,22.946,0,0,1,4.053,4.589,81.439,81.439,0,0,1,4.545,6.855,52.26,52.26,0,0,1,3.146,6.965c.085.215.123.137.2.059a.224.224,0,0,1,.269-.059,2.951,2.951,0,0,0,.9,0c3.614-.044,7.229-.022,10.845,0s7.238.043,10.858,0c.831-.01,1.663,0,2.5,0s1.672.01,2.508,0c.352,0,.717.012,1.084.027a10.948,10.948,0,0,0,1.928-.027.854.854,0,0,1,.159.011.492.492,0,0,0,.263-.011c.058-.044.088-.009.107.026s.031.086.048-.026c.062-.415.139-2.474.225-2.884a23.987,23.987,0,0,1,.642-2.39,35.522,35.522,0,0,1,4.25-8.476c.732-1.114,1.5-2.2,2.275-3.287.318-.444.634-.888.944-1.337a2.692,2.692,0,0,0,.408-.6c.014-.054.148-.16.141-.215-.011-.077-.48-.436-.543-.493a51.691,51.691,0,0,1-5.6-6.179,90.368,90.368,0,0,1-8.973-14.427A134.869,134.869,0,0,1,201.668,38.7c-.015-.046-.029-.093-.044-.139h-.12c-1.517,5.11-16.048,31.8-28.455,42.745" fill="#eb3b16"></path><path id="Caminho_5059" data-name="Caminho 5059" d="M124.143,104.054a75.624,75.624,0,0,1,5.03-14.489c8.067-17.384,22.693-30.954,40.36-39.138a120.768,120.768,0,0,1,15.438-5.9c1.279-.392,1.8-.608,1.584-.608a12.215,12.215,0,0,0-1.781.4,119.775,119.775,0,0,0-20.13,7.412c-17.666,8.388-32.293,22.3-40.359,40.115a79.156,79.156,0,0,0-4.37,12.2Z" fill="#eb3b16"></path><path id="Caminho_5060" data-name="Caminho 5060" d="M142.914,93.851a46.853,46.853,0,0,1,15.354-26.375c7.847-6.872,17.559-11.437,27.671-14.047-10.159,2.414-20,6.791-28.071,13.585a47.781,47.781,0,0,0-16.151,26.593,50.262,50.262,0,0,0-1.081,10.447h1.43a48.972,48.972,0,0,1,.848-10.2" fill="#eb3b16"></path><path id="Caminho_5061" data-name="Caminho 5061" d="M240.386,208.388c-1.191,0-2.39-.026-3.585-.059-1.092-.034-2.184-.081-3.283-.14a135.069,135.069,0,0,1-14.772-1.574,138.235,138.235,0,0,1-17.647-4.029q-6.187-1.853-12.059-4.254-2.47-1-4.879-2.1A113.943,113.943,0,0,1,154,176.439a82,82,0,0,1-20.764-26.552h5.878a84.055,84.055,0,0,0,5.011,7.817,98.87,98.87,0,0,0,20.236,20.341c1.746,1.335,3.526,2.655,5.364,3.9a113.487,113.487,0,0,0,15.389,8.75,127.086,127.086,0,0,0,16.541,6.367,134.349,134.349,0,0,0,18.026,4.214,148.836,148.836,0,0,0,15.47,1.445Z" fill="#eb3b16"></path><path id="Caminho_5062" data-name="Caminho 5062" d="M218.463,184.678c-.919-.25-1.831-.515-2.743-.794a133.637,133.637,0,0,1-14.941-5.453,130.477,130.477,0,0,1-14.129-7.264A111.894,111.894,0,0,1,161.9,151.4c-.463-.5-.922-1-1.378-1.515h3.32a108.986,108.986,0,0,0,24.353,18.64,126.2,126.2,0,0,0,13.9,6.812c3.769,1.57,7.625,2.919,11.526,4.1Z" fill="#eb3b16"></path><path id="Caminho_5063" data-name="Caminho 5063" d="M249.47,218.214q-6.59.6-13.393.6a143.41,143.41,0,0,1-47.868-8.056,119.126,119.126,0,0,1-38.162-21.8c-13.07-10.665-22.923-24.059-28.264-39.07h6.342c5.58,13.148,14.852,24.894,26.812,34.416,15.342,12.952,35.662,21.908,58.662,25.868a159.637,159.637,0,0,0,29.967,1.658Z" fill="#eb3b16"></path><path id="Caminho_5064" data-name="Caminho 5064" d="M230.3,197.483a123.37,123.37,0,0,1-13.07-2.231,134.626,134.626,0,0,1-16.294-4.743q-5.67-2.058-11.07-4.6-2.261-1.059-4.463-2.206a111.931,111.931,0,0,1-27.46-19.78A78.776,78.776,0,0,1,145.9,149.887H150.9q1.444,1.953,2.993,3.824a101.887,101.887,0,0,0,19.886,18.077c1.691,1.188,3.411,2.346,5.172,3.452a118.448,118.448,0,0,0,14.651,7.78,128.013,128.013,0,0,0,15.589,5.695,124.885,124.885,0,0,0,16.375,3.647Z" fill="#eb3b16"></path><path id="Caminho_5065" data-name="Caminho 5065" d="M104.76,95a4.1,4.1,0,0,1-.234,1.393,3.415,3.415,0,0,1-.678,1.147,3.2,3.2,0,0,1-1.073.777,3.476,3.476,0,0,1-1.443.283,3.283,3.283,0,0,1-1.418-.3,3.533,3.533,0,0,1-1.812-1.96,3.923,3.923,0,0,1-.247-1.393V94.9a4.079,4.079,0,0,1,.235-1.393,3.415,3.415,0,0,1,.678-1.147,3.181,3.181,0,0,1,1.072-.776,3.467,3.467,0,0,1,1.443-.284,3.305,3.305,0,0,1,1.406.3,3.5,3.5,0,0,1,1.824,1.96,3.9,3.9,0,0,1,.247,1.394Zm3.7-.049V94.9a6.619,6.619,0,0,0-.543-2.675,6.731,6.731,0,0,0-1.492-2.17,6.911,6.911,0,0,0-2.256-1.455,7.46,7.46,0,0,0-2.836-.531,7.382,7.382,0,0,0-2.86.543,7.135,7.135,0,0,0-2.269,1.48,6.819,6.819,0,0,0-1.5,2.182,6.62,6.62,0,0,0-.543,2.676V95a6.619,6.619,0,0,0,.543,2.675,6.778,6.778,0,0,0,1.492,2.171,6.943,6.943,0,0,0,2.256,1.455,7.482,7.482,0,0,0,2.836.53,7.387,7.387,0,0,0,2.861-.543,7.13,7.13,0,0,0,2.268-1.48,6.8,6.8,0,0,0,1.5-2.182A6.619,6.619,0,0,0,108.459,94.951Zm-20.172,0a4.165,4.165,0,0,1-.258,1.512,3.609,3.609,0,0,1-.7,1.155,3.127,3.127,0,0,1-1.024.748,3.01,3.01,0,0,1-3.5-.748,3.683,3.683,0,0,1-.691-1.167,4.173,4.173,0,0,1-.259-1.5V94.9a4.173,4.173,0,0,1,.259-1.5,3.683,3.683,0,0,1,.691-1.167,3.06,3.06,0,0,1,3.5-.748,3.127,3.127,0,0,1,1.024.748,3.582,3.582,0,0,1,.7,1.167,4.2,4.2,0,0,1,.258,1.5Zm3.749,0V94.9a7.861,7.861,0,0,0-.506-2.922,6.561,6.561,0,0,0-1.344-2.145,5.552,5.552,0,0,0-1.923-1.32,5.876,5.876,0,0,0-2.244-.444,4.616,4.616,0,0,0-2.454.6A5.883,5.883,0,0,0,81.9,90.2V88.317H78.152V105.48H81.9V99.825a6.575,6.575,0,0,0,1.639,1.369,4.755,4.755,0,0,0,2.479.587,5.929,5.929,0,0,0,2.268-.444,5.414,5.414,0,0,0,1.911-1.319,6.683,6.683,0,0,0,1.332-2.145A7.861,7.861,0,0,0,92.036,94.951ZM74.8,101.535V88.317H71.05v7.357a2.832,2.832,0,0,1-.629,2,2.222,2.222,0,0,1-1.713.679,2.106,2.106,0,0,1-1.677-.679,2.95,2.95,0,0,1-.592-2V88.317H62.691v8.557a5.2,5.2,0,0,0,1.171,3.6,4.22,4.22,0,0,0,3.317,1.307,4.139,4.139,0,0,0,2.318-.645,5.063,5.063,0,0,0,.85-.682,7.98,7.98,0,0,0,.7-.81v1.891ZM60.447,91.991V88.07a3.789,3.789,0,0,0-2.664.74,5.507,5.507,0,0,0-1.553,2.17V88.317H52.482v13.218H56.23V96.652A4.987,4.987,0,0,1,57.3,93.126a3.858,3.858,0,0,1,2.947-1.135Zm-11.22,7.1V91.6h-7.5v3.28h3.823v2.482A5.989,5.989,0,0,1,41.977,98.4,5.306,5.306,0,0,1,39.868,98a4.945,4.945,0,0,1-1.652-1.151A5.177,5.177,0,0,1,37.131,95.1a6.079,6.079,0,0,1-.382-2.187v-.049a5.669,5.669,0,0,1,.382-2.088A5.264,5.264,0,0,1,39.77,87.91a4.428,4.428,0,0,1,1.936-.431,6.943,6.943,0,0,1,1.356.123,5.987,5.987,0,0,1,1.146.345,6.409,6.409,0,0,1,1.024.543,9.458,9.458,0,0,1,.986.74l2.392-2.886a11.414,11.414,0,0,0-1.381-1.011,8.245,8.245,0,0,0-1.529-.74,10.07,10.07,0,0,0-1.763-.456,12.813,12.813,0,0,0-2.108-.16,9.157,9.157,0,0,0-3.625.7A8.842,8.842,0,0,0,32.779,92.9v.049a9.285,9.285,0,0,0,.666,3.551,8.346,8.346,0,0,0,1.861,2.811,8.511,8.511,0,0,0,2.861,1.85,9.839,9.839,0,0,0,3.686.666,10.43,10.43,0,0,0,4.2-.8A12.641,12.641,0,0,0,49.227,99.094Z" fill="#003163"></path></g></svg>